<svg width="1690" height="402" viewBox="0 0 1690 402" fill="none" xmlns="http://www.w3.org/2000/svg">
<path d="M474.2 274.32C474.2 271.147 474.573 268.16 475.32 265.36C476.253 262.373 477.373 259.667 478.68 257.24C480.173 253.133 481.76 248.467 483.44 243.24C485.12 238.013 487.173 232.04 489.6 225.32C489.413 224.76 489.32 224.107 489.32 223.36C489.32 222.613 489.32 222.053 489.32 221.68C489.32 217.947 489.787 214.867 490.72 212.44C491.653 209.827 493.613 207.587 496.6 205.72L520.96 148.6C522.08 146.36 523.293 143.84 524.6 141.04C525.907 138.24 527.307 135.72 528.8 133.48C530.293 131.053 531.88 129 533.56 127.32C535.24 125.64 537.013 124.8 538.88 124.8C544.107 124.8 548.867 127.787 553.16 133.76C557.453 139.547 561.373 146.92 564.92 155.88C568.653 164.84 572.013 174.733 575 185.56C577.987 196.387 580.693 206.747 583.12 216.64C585.733 226.347 588.067 234.933 590.12 242.4C592.36 249.867 594.507 254.813 596.56 257.24C597.867 258.92 598.987 260.32 599.92 261.44C600.853 262.373 601.6 263.4 602.16 264.52C602.72 265.453 603.093 266.667 603.28 268.16C603.653 269.467 603.84 271.24 603.84 273.48C603.84 276.467 603.373 278.8 602.44 280.48C601.507 281.973 600.387 283.093 599.08 283.84C597.96 284.773 596.653 285.333 595.16 285.52C593.853 285.707 592.733 285.8 591.8 285.8C589.933 285.8 588.16 284.773 586.48 282.72C584.8 280.48 583.213 277.867 581.72 274.88C580.413 271.893 579.2 268.72 578.08 265.36C577.147 262 576.4 259.107 575.84 256.68C574.347 251.453 573.04 247.16 571.92 243.8C570.987 240.44 569.96 237.827 568.84 235.96C567.907 234.093 566.693 232.787 565.2 232.04C563.893 231.293 562.027 230.92 559.6 230.92H512.56C511.253 230.92 510.133 231.013 509.2 231.2C508.453 231.387 507.707 231.947 506.96 232.88C506.4 233.627 505.84 234.747 505.28 236.24C504.72 237.733 503.973 239.787 503.04 242.4L494.36 267.32C493.987 271.053 493.333 274.04 492.4 276.28C491.467 278.52 490.347 280.293 489.04 281.6C487.92 282.72 486.8 283.467 485.68 283.84C484.56 284.4 483.813 284.68 483.44 284.68C480.453 284.68 478.12 284.027 476.44 282.72C474.947 281.227 474.2 278.427 474.2 274.32ZM516.48 204.88C521.893 205.067 526.747 205.253 531.04 205.44C535.333 205.44 539.907 205.44 544.76 205.44C547 205.44 549.333 205.44 551.76 205.44C554.187 205.44 556.8 205.347 559.6 205.16C558.293 201.427 556.613 197.133 554.56 192.28C552.693 187.24 550.547 182.2 548.12 177.16L537.76 155.04C536.827 155.6 535.427 157.84 533.56 161.76C531.693 165.68 529.64 170.253 527.4 175.48C525.347 180.707 523.293 186.027 521.24 191.44C519.187 196.853 517.6 201.333 516.48 204.88ZM632.092 267.88C632.092 263.587 632.092 260.133 632.092 257.52C632.278 254.72 632.372 252.387 632.372 250.52V242.68C632.372 240.253 632.372 237.92 632.372 235.68C632.372 233.253 632.465 229.8 632.652 225.32C633.025 220.84 633.398 214.68 633.772 206.84C634.332 199 635.172 188.173 636.292 174.36C636.665 170.253 637.598 166.987 639.092 164.56C640.585 161.947 642.918 160.64 646.092 160.64C647.585 160.64 649.172 161.667 650.852 163.72C652.532 165.587 653.372 169.32 653.372 174.92C653.372 175.853 653.372 176.88 653.372 178C653.372 178.933 653.278 180.053 653.092 181.36C654.398 177.067 656.452 173.427 659.252 170.44C662.238 167.453 665.505 165.027 669.052 163.16C672.598 161.293 676.238 159.987 679.972 159.24C683.705 158.307 687.158 157.84 690.332 157.84C692.758 157.84 695.558 158.12 698.732 158.68C702.092 159.053 705.172 159.987 707.972 161.48C710.958 162.787 713.385 164.84 715.252 167.64C717.305 170.253 718.332 173.8 718.332 178.28C718.332 182.387 717.585 185.747 716.092 188.36C714.598 190.973 712.452 192.28 709.652 192.28C707.412 192.28 705.918 191.813 705.172 190.88C704.612 189.76 703.865 188.547 702.932 187.24C702.185 185.933 700.972 184.813 699.292 183.88C697.612 182.76 694.625 182.2 690.332 182.2H687.532C674.092 182.2 664.665 185.933 659.252 193.4C653.838 200.68 651.132 211.6 651.132 226.16V230.92L652.532 270.4C652.532 271.333 652.345 272.547 651.972 274.04C651.598 275.347 651.038 276.747 650.292 278.24C649.545 279.733 648.518 281.04 647.212 282.16C646.092 283.093 644.598 283.56 642.732 283.56C638.438 283.56 635.545 282.347 634.052 279.92C632.745 277.307 632.092 273.293 632.092 267.88ZM783.598 284.4C776.878 284.4 771.464 282.813 767.358 279.64C763.251 276.28 760.078 271.893 757.838 266.48C755.598 261.067 754.011 254.907 753.078 248C752.331 241.093 751.864 234 751.678 226.72C751.491 219.253 751.304 211.973 751.118 204.88C751.118 197.787 750.838 191.347 750.278 185.56C748.224 185.56 746.078 185.653 743.838 185.84C741.598 186.027 739.171 186.12 736.558 186.12C735.811 186.12 734.784 185.84 733.478 185.28C732.358 184.72 731.144 183.973 729.838 183.04C728.718 181.92 727.691 180.613 726.758 179.12C726.011 177.627 725.638 175.853 725.638 173.8C725.638 170.067 726.758 166.893 728.998 164.28C731.238 161.667 733.758 160.36 736.558 160.36C738.984 160.36 741.411 160.453 743.838 160.64C746.264 160.64 748.878 160.733 751.678 160.92C751.678 158.493 751.771 154.76 751.958 149.72C752.331 144.68 752.891 139.733 753.638 134.88C754.571 130.027 755.878 125.733 757.558 122C759.238 118.267 761.478 116.4 764.278 116.4C765.771 116.4 767.358 117.52 769.038 119.76C770.904 121.813 771.838 124.613 771.838 128.16C771.838 136.56 771.558 142.813 770.998 146.92C770.624 151.027 770.251 154.107 769.878 156.16L769.038 161.2C775.758 161.2 782.478 161.107 789.198 160.92C796.104 160.733 803.011 160.64 809.918 160.64C811.224 160.64 812.344 161.107 813.278 162.04C814.211 162.973 814.958 164.187 815.518 165.68C816.078 166.987 816.451 168.48 816.638 170.16C817.011 171.653 817.198 173.053 817.198 174.36C817.198 178.28 816.171 181.267 814.118 183.32C812.251 185.187 810.384 186.12 808.518 186.12L768.758 185.56C768.758 187.24 768.664 189.48 768.478 192.28C768.478 194.893 768.478 197.787 768.478 200.96C768.478 204.133 768.384 207.493 768.198 211.04C768.198 214.4 768.198 217.667 768.198 220.84C768.198 225.88 768.384 230.733 768.758 235.4C769.131 239.88 769.784 243.893 770.718 247.44C771.838 250.987 773.331 253.88 775.198 256.12C777.064 258.173 779.584 259.2 782.758 259.2C784.998 259.2 787.238 258.733 789.478 257.8C791.904 256.867 794.051 255.84 795.918 254.72C797.971 253.413 799.651 252.293 800.958 251.36C802.264 250.427 803.104 249.96 803.478 249.96C805.718 249.96 807.211 250.707 807.958 252.2C808.704 253.507 809.078 255.467 809.078 258.08C809.078 260.88 808.144 263.867 806.278 267.04C804.598 270.027 802.451 272.827 799.838 275.44C797.224 278.053 794.424 280.2 791.438 281.88C788.451 283.56 785.838 284.4 783.598 284.4ZM856.157 132.08C854.851 132.08 853.357 131.893 851.677 131.52C849.997 131.147 848.411 130.493 846.917 129.56C845.424 128.44 844.117 127.04 842.997 125.36C842.064 123.493 841.597 121.067 841.597 118.08C841.597 116.027 841.971 113.973 842.717 111.92C843.651 109.867 844.771 108.093 846.077 106.6C847.384 104.92 848.784 103.613 850.277 102.68C851.957 101.56 853.544 101 855.037 101C858.024 101 860.917 102.027 863.717 104.08C866.704 106.133 868.197 110.147 868.197 116.12C868.197 126.76 864.184 132.08 856.157 132.08ZM840.477 272.92C840.291 271.987 840.011 269.747 839.637 266.2C839.451 262.467 839.357 255.84 839.357 246.32C839.357 242.587 839.357 237.827 839.357 232.04C839.357 226.067 839.451 219.907 839.637 213.56C840.011 207.027 840.477 200.493 841.037 193.96C841.784 187.427 842.624 181.547 843.557 176.32C844.677 171.093 846.077 166.893 847.757 163.72C849.437 160.36 851.491 158.68 853.917 158.68C856.904 158.68 858.677 159.987 859.237 162.6C859.984 165.213 860.357 168.293 860.357 171.84C859.984 179.68 859.424 188.547 858.677 198.44C857.931 208.147 857.557 217.667 857.557 227C857.557 233.907 858.117 241.56 859.237 249.96C860.357 258.173 860.917 265.547 860.917 272.08C860.917 276.56 859.984 280.013 858.117 282.44C856.251 284.68 854.291 285.8 852.237 285.8C849.064 285.8 846.544 284.867 844.677 283C842.811 281.133 841.411 277.773 840.477 272.92ZM893.57 263.4C893.57 262.28 893.757 260.973 894.13 259.48C894.69 257.8 895.343 256.307 896.09 255C897.023 253.507 897.957 252.293 898.89 251.36C899.823 250.24 900.85 249.68 901.97 249.68C902.717 249.68 903.743 250.52 905.05 252.2C906.73 254.44 908.317 256.213 909.81 257.52C911.49 258.64 913.17 259.573 914.85 260.32C916.717 261.067 918.77 261.533 921.01 261.72C923.437 261.907 926.237 262 929.41 262C932.957 262 936.69 261.627 940.61 260.88C944.53 260.133 948.077 259.293 951.25 258.36C954.423 257.427 957.037 256.4 959.09 255.28C961.33 254.16 962.45 253.32 962.45 252.76C962.45 250.893 960.583 249.4 956.85 248.28C953.303 246.973 948.73 245.76 943.13 244.64C937.53 243.52 931.557 242.12 925.21 240.44C918.863 238.76 912.89 236.52 907.29 233.72C901.69 230.733 897.023 227 893.29 222.52C889.743 217.853 887.97 211.973 887.97 204.88C887.97 197.04 889.557 190.133 892.73 184.16C896.09 178 900.383 172.867 905.61 168.76C910.837 164.467 916.623 161.293 922.97 159.24C929.317 157 935.57 155.88 941.73 155.88C950.503 155.88 957.503 158.307 962.73 163.16C967.957 168.013 970.57 173.613 970.57 179.96C970.57 182.2 970.477 184.627 970.29 187.24C970.29 189.853 970.01 192.373 969.45 194.8C968.89 197.04 968.05 199 966.93 200.68C965.81 202.173 964.13 202.92 961.89 202.92C959.837 202.92 958.53 201.893 957.97 199.84C957.41 197.787 957.13 195.173 957.13 192C957.13 187.707 955.45 184.813 952.09 183.32C948.917 181.827 944.437 181.08 938.65 181.08C935.477 181.08 931.93 181.733 928.01 183.04C924.277 184.16 920.73 185.84 917.37 188.08C914.01 190.133 911.117 192.56 908.69 195.36C906.45 197.973 905.33 200.68 905.33 203.48C905.33 206.84 907.103 209.36 910.65 211.04C914.383 212.533 919.05 213.84 924.65 214.96C930.25 216.08 936.223 217.293 942.57 218.6C948.917 219.72 954.89 221.493 960.49 223.92C966.09 226.347 970.663 229.707 974.21 234C977.943 238.293 979.81 244.08 979.81 251.36C979.81 257.893 977.757 263.493 973.65 268.16C969.543 272.64 964.597 276.28 958.81 279.08C953.21 281.88 947.33 283.84 941.17 284.96C935.197 286.267 930.343 286.92 926.61 286.92C923.81 286.92 920.543 286.64 916.81 286.08C913.077 285.707 909.437 284.68 905.89 283C902.53 281.32 899.637 278.987 897.21 276C894.783 272.827 893.57 268.627 893.57 263.4ZM1055.94 284.4C1049.22 284.4 1043.81 282.813 1039.7 279.64C1035.59 276.28 1032.42 271.893 1030.18 266.48C1027.94 261.067 1026.35 254.907 1025.42 248C1024.67 241.093 1024.21 234 1024.02 226.72C1023.83 219.253 1023.65 211.973 1023.46 204.88C1023.46 197.787 1023.18 191.347 1022.62 185.56C1020.57 185.56 1018.42 185.653 1016.18 185.84C1013.94 186.027 1011.51 186.12 1008.9 186.12C1008.15 186.12 1007.13 185.84 1005.82 185.28C1004.7 184.72 1003.49 183.973 1002.18 183.04C1001.06 181.92 1000.03 180.613 999.102 179.12C998.355 177.627 997.982 175.853 997.982 173.8C997.982 170.067 999.102 166.893 1001.34 164.28C1003.58 161.667 1006.1 160.36 1008.9 160.36C1011.33 160.36 1013.75 160.453 1016.18 160.64C1018.61 160.64 1021.22 160.733 1024.02 160.92C1024.02 158.493 1024.11 154.76 1024.3 149.72C1024.67 144.68 1025.23 139.733 1025.98 134.88C1026.91 130.027 1028.22 125.733 1029.9 122C1031.58 118.267 1033.82 116.4 1036.62 116.4C1038.11 116.4 1039.7 117.52 1041.38 119.76C1043.25 121.813 1044.18 124.613 1044.18 128.16C1044.18 136.56 1043.9 142.813 1043.34 146.92C1042.97 151.027 1042.59 154.107 1042.22 156.16L1041.38 161.2C1048.1 161.2 1054.82 161.107 1061.54 160.92C1068.45 160.733 1075.35 160.64 1082.26 160.64C1083.57 160.64 1084.69 161.107 1085.62 162.04C1086.55 162.973 1087.3 164.187 1087.86 165.68C1088.42 166.987 1088.79 168.48 1088.98 170.16C1089.35 171.653 1089.54 173.053 1089.54 174.36C1089.54 178.28 1088.51 181.267 1086.46 183.32C1084.59 185.187 1082.73 186.12 1080.86 186.12L1041.1 185.56C1041.1 187.24 1041.01 189.48 1040.82 192.28C1040.82 194.893 1040.82 197.787 1040.82 200.96C1040.82 204.133 1040.73 207.493 1040.54 211.04C1040.54 214.4 1040.54 217.667 1040.54 220.84C1040.54 225.88 1040.73 230.733 1041.1 235.4C1041.47 239.88 1042.13 243.893 1043.06 247.44C1044.18 250.987 1045.67 253.88 1047.54 256.12C1049.41 258.173 1051.93 259.2 1055.1 259.2C1057.34 259.2 1059.58 258.733 1061.82 257.8C1064.25 256.867 1066.39 255.84 1068.26 254.72C1070.31 253.413 1071.99 252.293 1073.3 251.36C1074.61 250.427 1075.45 249.96 1075.82 249.96C1078.06 249.96 1079.55 250.707 1080.3 252.2C1081.05 253.507 1081.42 255.467 1081.42 258.08C1081.42 260.88 1080.49 263.867 1078.62 267.04C1076.94 270.027 1074.79 272.827 1072.18 275.44C1069.57 278.053 1066.77 280.2 1063.78 281.88C1060.79 283.56 1058.18 284.4 1055.94 284.4ZM1128.5 132.08C1127.19 132.08 1125.7 131.893 1124.02 131.52C1122.34 131.147 1120.75 130.493 1119.26 129.56C1117.77 128.44 1116.46 127.04 1115.34 125.36C1114.41 123.493 1113.94 121.067 1113.94 118.08C1113.94 116.027 1114.31 113.973 1115.06 111.92C1115.99 109.867 1117.11 108.093 1118.42 106.6C1119.73 104.92 1121.13 103.613 1122.62 102.68C1124.3 101.56 1125.89 101 1127.38 101C1130.37 101 1133.26 102.027 1136.06 104.08C1139.05 106.133 1140.54 110.147 1140.54 116.12C1140.54 126.76 1136.53 132.08 1128.5 132.08ZM1112.82 272.92C1112.63 271.987 1112.35 269.747 1111.98 266.2C1111.79 262.467 1111.7 255.84 1111.7 246.32C1111.7 242.587 1111.7 237.827 1111.7 232.04C1111.7 226.067 1111.79 219.907 1111.98 213.56C1112.35 207.027 1112.82 200.493 1113.38 193.96C1114.13 187.427 1114.97 181.547 1115.9 176.32C1117.02 171.093 1118.42 166.893 1120.1 163.72C1121.78 160.36 1123.83 158.68 1126.26 158.68C1129.25 158.68 1131.02 159.987 1131.58 162.6C1132.33 165.213 1132.7 168.293 1132.7 171.84C1132.33 179.68 1131.77 188.547 1131.02 198.44C1130.27 208.147 1129.9 217.667 1129.9 227C1129.9 233.907 1130.46 241.56 1131.58 249.96C1132.7 258.173 1133.26 265.547 1133.26 272.08C1133.26 276.56 1132.33 280.013 1130.46 282.44C1128.59 284.68 1126.63 285.8 1124.58 285.8C1121.41 285.8 1118.89 284.867 1117.02 283C1115.15 281.133 1113.75 277.773 1112.82 272.92ZM1176.27 255C1176.27 245.48 1176.37 236.053 1176.55 226.72C1176.93 217.2 1177.21 207.213 1177.39 196.76V190.32C1174.41 190.507 1171.42 190.693 1168.43 190.88C1165.63 190.88 1162.74 190.88 1159.75 190.88C1157.33 190.88 1155.27 189.573 1153.59 186.96C1152.1 184.347 1151.35 181.453 1151.35 178.28C1151.35 175.293 1152.19 172.493 1153.87 169.88C1155.74 167.08 1157.79 165.68 1160.03 165.68L1178.23 166.24H1179.35C1180.47 156.907 1182.06 147.667 1184.11 138.52C1186.17 129.373 1188.97 121.253 1192.51 114.16C1196.06 106.88 1200.35 101 1205.39 96.52C1210.43 92.04 1216.41 89.8 1223.31 89.8C1224.99 89.8 1227.33 90.2667 1230.31 91.2C1233.49 92.1333 1236.47 93.5333 1239.27 95.4C1242.26 97.08 1244.87 99.2267 1247.11 101.84C1249.35 104.267 1250.47 106.973 1250.47 109.96C1250.47 110.893 1250.38 112.107 1250.19 113.6C1250.19 114.907 1250.01 116.213 1249.63 117.52C1249.26 118.827 1248.7 119.947 1247.95 120.88C1247.39 121.813 1246.55 122.28 1245.43 122.28C1243.38 122.28 1241.51 121.907 1239.83 121.16C1238.15 120.227 1236.47 119.293 1234.79 118.36C1233.11 117.427 1231.34 116.587 1229.47 115.84C1227.61 114.907 1225.55 114.44 1223.31 114.44C1218.27 114.44 1214.07 116.12 1210.71 119.48C1207.54 122.84 1204.93 127.04 1202.87 132.08C1201.01 137.12 1199.51 142.72 1198.39 148.88C1197.46 154.853 1196.9 160.64 1196.71 166.24H1227.23C1228.35 166.053 1229.57 165.96 1230.87 165.96C1232.18 165.773 1233.39 165.68 1234.51 165.68C1236.38 165.68 1238.15 166.427 1239.83 167.92C1241.51 169.413 1242.35 172.587 1242.35 177.44C1242.35 180.8 1241.89 183.413 1240.95 185.28C1240.21 186.96 1239.18 188.267 1237.87 189.2C1236.75 189.947 1235.45 190.413 1233.95 190.6C1232.65 190.787 1231.53 190.88 1230.59 190.88C1226.11 190.693 1222.29 190.507 1219.11 190.32C1215.94 190.133 1213.14 189.947 1210.71 189.76C1208.47 189.573 1206.42 189.48 1204.55 189.48C1202.87 189.48 1201.1 189.48 1199.23 189.48H1196.43C1196.25 198.253 1195.97 207.027 1195.59 215.8C1195.22 224.387 1194.94 233.72 1194.75 243.8C1194.75 245.853 1195.22 249.68 1196.15 255.28C1197.09 260.88 1197.55 266.947 1197.55 273.48C1197.55 277.4 1196.9 280.2 1195.59 281.88C1194.29 283.56 1192.61 284.4 1190.55 284.4C1187.57 284.4 1185.14 284.027 1183.27 283.28C1181.41 282.72 1179.91 281.413 1178.79 279.36C1177.86 277.12 1177.21 274.133 1176.83 270.4C1176.46 266.48 1176.27 261.347 1176.27 255ZM1290.11 267.32C1287.87 262.467 1285.16 256.213 1281.99 248.56C1278.82 240.907 1275.55 233.067 1272.19 225.04C1269.02 217.013 1265.94 209.36 1262.95 202.08C1259.96 194.8 1257.63 188.92 1255.95 184.44C1255.02 182.387 1254.27 180.24 1253.71 178C1253.34 175.76 1253.15 173.987 1253.15 172.68C1253.34 168.387 1254.36 164.933 1256.23 162.32C1258.28 159.707 1260.62 158.4 1263.23 158.4C1265.28 158.4 1266.87 159.52 1267.99 161.76C1269.11 164 1270.14 166.427 1271.07 169.04C1272.94 174.64 1275.27 181.173 1278.07 188.64C1280.87 195.92 1283.67 203.2 1286.47 210.48C1289.46 217.76 1292.26 224.667 1294.87 231.2C1297.48 237.547 1299.63 242.493 1301.31 246.04L1339.67 171.28C1341.72 167.173 1344.24 164 1347.23 161.76C1350.4 159.52 1353.58 158.4 1356.75 158.4C1358.62 158.4 1360.02 159.613 1360.95 162.04C1361.88 164.28 1362.35 166.427 1362.35 168.48C1362.35 170.72 1361.7 172.96 1360.39 175.2C1359.27 177.44 1356.75 181.64 1352.83 187.8C1350.4 191.72 1347.14 196.667 1343.03 202.64C1339.11 208.613 1334.72 216.64 1329.87 226.72C1326.51 233.44 1322.31 241.653 1317.27 251.36C1312.23 261.067 1307.28 270.96 1302.43 281.04C1297.76 291.12 1293.66 300.733 1290.11 309.88C1286.75 319.027 1285.07 326.493 1285.07 332.28C1285.07 335.64 1284.23 339 1282.55 342.36C1281.06 345.72 1278.91 347.4 1276.11 347.4C1274.99 347.4 1273.68 346.933 1272.19 346C1270.88 345.067 1269.48 343.853 1267.99 342.36C1266.68 341.053 1265.56 339.56 1264.63 337.88C1263.7 336.387 1263.23 334.893 1263.23 333.4C1263.23 331.16 1263.79 328.08 1264.91 324.16C1266.03 320.427 1267.34 316.32 1268.83 311.84C1270.51 307.547 1272.28 303.253 1274.15 298.96C1276.02 294.667 1277.88 290.933 1279.75 287.76L1290.11 267.32Z" fill="#0D47A1"/>
<path d="M1553.58 289C1552.22 286.292 1551.12 281.467 1550.28 274.527C1539.36 285.868 1526.33 291.539 1511.18 291.539C1497.63 291.539 1486.5 287.73 1477.79 280.113C1469.15 272.411 1464.84 262.678 1464.84 250.914C1464.84 236.611 1470.25 225.523 1481.09 217.652C1492.01 209.697 1507.32 205.719 1527.04 205.719H1549.9V194.928C1549.9 186.718 1547.44 180.201 1542.53 175.377C1537.62 170.468 1530.39 168.014 1520.82 168.014C1512.45 168.014 1505.42 170.13 1499.75 174.361C1494.08 178.593 1491.24 183.714 1491.24 189.723H1467.63C1467.63 182.867 1470.04 176.266 1474.87 169.918C1479.78 163.486 1486.38 158.408 1494.67 154.684C1503.05 150.96 1512.23 149.098 1522.22 149.098C1538.05 149.098 1550.45 153.076 1559.42 161.031C1568.39 168.902 1573.04 179.778 1573.38 193.658V256.881C1573.38 269.492 1574.99 279.521 1578.21 286.969V289H1553.58ZM1514.6 271.1C1521.97 271.1 1528.95 269.195 1535.55 265.387C1542.15 261.578 1546.93 256.627 1549.9 250.533V222.35H1531.49C1502.71 222.35 1488.32 230.771 1488.32 247.613C1488.32 254.977 1490.78 260.732 1495.69 264.879C1500.6 269.026 1506.9 271.1 1514.6 271.1ZM1635.72 289H1612.23V151.637H1635.72V289ZM1610.33 115.201C1610.33 111.393 1611.47 108.176 1613.75 105.553C1616.12 102.929 1619.59 101.617 1624.16 101.617C1628.73 101.617 1632.2 102.929 1634.57 105.553C1636.94 108.176 1638.13 111.393 1638.13 115.201C1638.13 119.01 1636.94 122.184 1634.57 124.723C1632.2 127.262 1628.73 128.531 1624.16 128.531C1619.59 128.531 1616.12 127.262 1613.75 124.723C1611.47 122.184 1610.33 119.01 1610.33 115.201Z" fill="#1E88E5"/>
<path d="M1386.69 274.738C1386.69 270.363 1387.96 266.717 1390.52 263.801C1393.16 260.884 1397.08 259.426 1402.27 259.426C1407.47 259.426 1411.39 260.884 1414.03 263.801C1416.77 266.717 1418.13 270.363 1418.13 274.738C1418.13 278.931 1416.77 282.44 1414.03 285.266C1411.39 288.091 1407.47 289.504 1402.27 289.504C1397.08 289.504 1393.16 288.091 1390.52 285.266C1387.96 282.44 1386.69 278.931 1386.69 274.738Z" fill="#FFAB00"/>
<rect width="405" height="402" rx="112" fill="#1976D2"/>
<circle cx="322.5" cy="118.5" r="38.5" transform="rotate(90 322.5 118.5)" fill="white"/>
<ellipse cx="262.5" cy="210.5" rx="23.5" ry="23.5" transform="rotate(90 262.5 210.5)" fill="white"/>
<ellipse cx="146.5" cy="210.5" rx="23.5" ry="24.5" transform="rotate(90 146.5 210.5)" fill="white"/>
<circle cx="87.5" cy="118.5" r="38.5" transform="rotate(90 87.5 118.5)" fill="white"/>
<ellipse cx="205" cy="118.5" rx="38.5" ry="38" transform="rotate(90 205 118.5)" fill="white"/>
<line x1="327.491" y1="122.487" x2="268.779" y2="213.758" stroke="white" stroke-width="15"/>
<line x1="207.651" y1="114.372" x2="266.363" y2="205.642" stroke="white" stroke-width="15"/>
<line x1="88.7942" y1="114.372" x2="147.506" y2="205.642" stroke="white" stroke-width="15"/>
<line x1="207.483" y1="122.487" x2="148.77" y2="213.758" stroke="white" stroke-width="15"/>
<rect x="234" y="215" width="25" height="58" transform="rotate(90 234 215)" stroke="white" stroke-width="10"/>
<ellipse cx="204.281" cy="284.224" rx="55.6124" ry="56.4342" fill="white"/>
<path d="M200.171 340.658L147.393 289.155C152.624 327.735 118.279 339.565 100.453 340.658H200.171Z" fill="white"/>
</svg>
