<svg width="349" height="68" fill="none" xmlns="http://www.w3.org/2000/svg">
  <path d="M87 48.535a7.8 7.8 0 01.252-2.016c.21-.673.462-1.282.756-1.828.337-.925.694-1.975 1.072-3.152.378-1.176.84-2.52 1.386-4.034a1.397 1.397 0 01-.063-.44v-.379c0-.84.106-1.533.316-2.08.21-.588.65-1.092 1.323-1.512l5.484-12.858c.252-.504.525-1.072.819-1.702.294-.63.61-1.197.945-1.702a7.532 7.532 0 011.072-1.386c.378-.378.777-.567 1.197-.567 1.177 0 2.248.672 3.215 2.016.966 1.303 1.849 2.963 2.647 4.98.84 2.017 1.597 4.244 2.269 6.68.672 2.438 1.282 4.77 1.828 6.997.588 2.185 1.113 4.117 1.576 5.798.504 1.681.987 2.794 1.449 3.34.294.379.546.694.757.946.21.21.378.441.504.693.126.21.21.484.252.82.084.294.126.693.126 1.197 0 .673-.105 1.198-.315 1.576-.21.336-.462.588-.757.756-.252.21-.546.337-.882.379a5.466 5.466 0 01-.756.063c-.42 0-.82-.232-1.198-.694a11.539 11.539 0 01-1.071-1.765 25.343 25.343 0 01-.82-2.142 46.665 46.665 0 01-.504-1.954 72.25 72.25 0 00-.882-2.9c-.21-.756-.441-1.344-.694-1.764-.21-.42-.483-.715-.819-.883-.294-.168-.714-.252-1.26-.252h-10.59a3.91 3.91 0 00-.755.063c-.169.042-.337.168-.505.378-.126.168-.252.42-.378.757-.126.336-.294.798-.504 1.386l-1.954 5.61c-.084.84-.231 1.512-.441 2.017-.21.504-.462.903-.756 1.197-.253.252-.505.42-.757.504-.252.126-.42.19-.504.19-.672 0-1.198-.148-1.576-.442-.336-.336-.504-.966-.504-1.89zm9.517-15.63c1.219.041 2.311.084 3.278.126h4.664c.546 0 1.134-.021 1.765-.063a50.555 50.555 0 00-1.135-2.9 39.064 39.064 0 00-1.45-3.403l-2.332-4.98c-.21.127-.525.63-.945 1.513-.42.883-.882 1.912-1.387 3.088a327.626 327.626 0 00-1.386 3.593 58.75 58.75 0 00-1.072 3.025zm26.024 14.181v-2.332c.042-.63.063-1.156.063-1.576v-3.34c0-.547.021-1.324.063-2.333.084-1.008.168-2.395.253-4.16.126-1.764.315-4.201.567-7.31.084-.925.294-1.66.63-2.207.336-.588.861-.882 1.576-.882.336 0 .693.231 1.071.693.378.42.567 1.26.567 2.521v.694c0 .21-.021.462-.063.756.295-.966.757-1.786 1.387-2.458a9.121 9.121 0 014.664-2.521c.84-.21 1.618-.315 2.332-.315.546 0 1.177.063 1.891.189a5.72 5.72 0 012.08.63 3.748 3.748 0 011.639 1.387c.462.588.693 1.386.693 2.395 0 .924-.168 1.68-.504 2.269-.336.588-.82.882-1.45.882-.504 0-.84-.105-1.008-.315a6.227 6.227 0 00-.505-.82c-.168-.293-.441-.546-.819-.756-.378-.252-1.05-.378-2.017-.378h-.63c-3.025 0-5.147.84-6.366 2.521-1.218 1.639-1.828 4.097-1.828 7.375v1.071l.315 8.887c0 .21-.042.483-.126.82-.084.294-.21.609-.378.945-.168.336-.399.63-.693.882-.252.21-.588.315-1.009.315-.966 0-1.617-.273-1.953-.82-.295-.587-.442-1.49-.442-2.71zm34.104 3.718c-1.512 0-2.731-.357-3.655-1.071-.925-.756-1.639-1.744-2.143-2.962-.504-1.219-.862-2.605-1.072-4.16a58.545 58.545 0 01-.315-4.79c-.042-1.681-.084-3.32-.126-4.916a45.47 45.47 0 00-.189-4.35c-.462 0-.945.022-1.45.064-.504.042-1.05.063-1.638.063-.168 0-.4-.063-.694-.19a6.202 6.202 0 01-.819-.504 4.95 4.95 0 01-.693-.882c-.168-.336-.252-.735-.252-1.198 0-.84.252-1.554.756-2.143.504-.588 1.071-.882 1.702-.882.546 0 1.092.021 1.638.063.547 0 1.135.021 1.765.063 0-.546.021-1.387.063-2.521a42.72 42.72 0 01.378-3.34c.21-1.093.505-2.06.883-2.9.378-.84.882-1.26 1.512-1.26.337 0 .694.252 1.072.756.42.462.63 1.092.63 1.89 0 1.892-.063 3.3-.189 4.224-.084.924-.168 1.617-.252 2.08l-.189 1.134c1.513 0 3.025-.02 4.538-.063 1.555-.042 3.109-.063 4.664-.063.294 0 .546.105.756.315.21.21.378.483.505.82.126.294.21.63.252 1.008.084.336.126.651.126.945 0 .883-.231 1.555-.694 2.017-.42.42-.84.63-1.26.63l-8.95-.126c0 .379-.021.883-.063 1.513v1.954c0 .714-.021 1.47-.063 2.27v2.205c0 1.135.042 2.227.126 3.278a15.9 15.9 0 00.441 2.71c.252.798.588 1.45 1.009 1.954.42.462.987.693 1.701.693a3.91 3.91 0 001.513-.315 9.377 9.377 0 001.45-.694c.462-.294.84-.546 1.134-.756.294-.21.483-.315.567-.315.505 0 .841.168 1.009.504.168.294.252.736.252 1.324 0 .63-.21 1.302-.63 2.017a8.76 8.76 0 01-1.45 1.89 8.721 8.721 0 01-1.891 1.45c-.672.378-1.26.567-1.765.567zm16.333-34.287c-.294 0-.63-.042-1.008-.126a3.4 3.4 0 01-1.071-.441 3.791 3.791 0 01-.883-.945c-.21-.42-.315-.967-.315-1.64 0-.461.084-.924.252-1.386.21-.462.462-.861.756-1.197.295-.379.61-.673.946-.883.378-.252.735-.378 1.071-.378.673 0 1.324.231 1.954.693.672.463 1.009 1.366 1.009 2.71 0 2.396-.904 3.593-2.711 3.593zm-3.529 31.703c-.042-.21-.105-.714-.189-1.512-.042-.84-.063-2.332-.063-4.475v-3.215c0-1.344.021-2.731.063-4.16.084-1.47.189-2.941.315-4.412.168-1.47.357-2.794.567-3.97.252-1.177.567-2.122.946-2.837.378-.756.84-1.134 1.386-1.134.673 0 1.072.294 1.198.882.168.588.252 1.282.252 2.08a218.78 218.78 0 01-.378 5.988 83.86 83.86 0 00-.252 6.429c0 1.554.126 3.277.378 5.168.252 1.849.378 3.508.378 4.98 0 1.008-.21 1.785-.63 2.331-.421.504-.862.757-1.324.757-.714 0-1.282-.21-1.702-.63-.42-.42-.735-1.177-.945-2.27zm11.951-2.143c0-.252.042-.546.126-.882.126-.378.273-.714.441-1.008.21-.337.42-.61.631-.82.21-.252.441-.378.693-.378.168 0 .399.189.693.567.378.504.736.904 1.072 1.198.378.252.756.462 1.134.63.42.168.883.273 1.387.315.546.042 1.176.063 1.891.063.798 0 1.638-.084 2.521-.252.882-.168 1.68-.357 2.395-.567.714-.21 1.302-.441 1.765-.694.504-.252.756-.44.756-.567 0-.42-.42-.756-1.261-1.008-.798-.294-1.827-.568-3.088-.82a67.702 67.702 0 01-4.034-.945 21.048 21.048 0 01-4.034-1.513c-1.26-.672-2.311-1.512-3.151-2.52-.798-1.051-1.198-2.375-1.198-3.971 0-1.765.358-3.32 1.072-4.665.756-1.386 1.723-2.542 2.899-3.466a11.86 11.86 0 013.908-2.143c1.429-.504 2.836-.756 4.223-.756 1.975 0 3.55.546 4.727 1.638 1.176 1.093 1.765 2.353 1.765 3.782 0 .504-.021 1.05-.063 1.639 0 .588-.063 1.155-.189 1.701a4.205 4.205 0 01-.568 1.324c-.252.336-.63.504-1.134.504-.462 0-.756-.23-.883-.693-.126-.462-.189-1.05-.189-1.765 0-.966-.378-1.617-1.134-1.954-.714-.336-1.723-.504-3.025-.504-.715 0-1.513.147-2.396.441-.84.252-1.638.63-2.395 1.135a8.262 8.262 0 00-1.953 1.639c-.505.588-.757 1.197-.757 1.827 0 .757.399 1.324 1.198 1.702.84.336 1.891.63 3.151.883 1.261.252 2.605.525 4.034.819 1.429.252 2.773.651 4.034 1.197 1.26.547 2.29 1.303 3.088 2.27.84.966 1.261 2.268 1.261 3.907 0 1.47-.463 2.731-1.387 3.782a10.944 10.944 0 01-3.34 2.458 14.74 14.74 0 01-3.971 1.323c-1.345.295-2.437.442-3.278.442-.63 0-1.365-.063-2.206-.19a7.447 7.447 0 01-2.458-.693 5.9 5.9 0 01-1.954-1.575c-.546-.715-.819-1.66-.819-2.837zm36.55 4.727c-1.513 0-2.731-.357-3.656-1.071-.924-.756-1.639-1.744-2.143-2.962-.504-1.219-.861-2.605-1.071-4.16a58.545 58.545 0 01-.315-4.79c-.042-1.681-.084-3.32-.126-4.916a45.47 45.47 0 00-.189-4.35c-.463 0-.946.022-1.45.064s-1.051.063-1.639.063c-.168 0-.399-.063-.693-.19a6.273 6.273 0 01-.82-.504 4.95 4.95 0 01-.693-.882c-.168-.336-.252-.735-.252-1.198 0-.84.252-1.554.756-2.143.505-.588 1.072-.882 1.702-.882.546 0 1.093.021 1.639.063.546 0 1.134.021 1.765.063 0-.546.021-1.387.063-2.521a42.72 42.72 0 01.378-3.34c.21-1.093.504-2.06.882-2.9.378-.84.883-1.26 1.513-1.26.336 0 .693.252 1.071.756.421.462.631 1.092.631 1.89 0 1.892-.063 3.3-.189 4.224-.084.924-.169 1.617-.253 2.08l-.189 1.134c1.513 0 3.026-.02 4.538-.063 1.555-.042 3.11-.063 4.664-.063.295 0 .547.105.757.315.21.21.378.483.504.82.126.294.21.63.252 1.008.084.336.126.651.126.945 0 .883-.231 1.555-.693 2.017-.42.42-.841.63-1.261.63l-8.95-.126c0 .379-.021.883-.063 1.513v1.954c0 .714-.021 1.47-.063 2.27v2.205c0 1.135.042 2.227.126 3.278a15.78 15.78 0 00.442 2.71c.252.798.588 1.45 1.008 1.954.42.462.987.693 1.702.693.504 0 1.008-.105 1.512-.315a9.29 9.29 0 001.45-.694c.462-.294.84-.546 1.135-.756.294-.21.483-.315.567-.315.504 0 .84.168 1.008.504.168.294.252.736.252 1.324 0 .63-.21 1.302-.63 2.017a8.697 8.697 0 01-1.45 1.89 8.716 8.716 0 01-1.89 1.45c-.673.378-1.261.567-1.765.567zm16.333-34.287c-.294 0-.63-.042-1.009-.126a3.4 3.4 0 01-1.071-.441 3.806 3.806 0 01-.882-.945c-.21-.42-.316-.967-.316-1.64 0-.461.085-.924.253-1.386.21-.462.462-.861.756-1.197.294-.379.609-.673.945-.883.379-.252.736-.378 1.072-.378.672 0 1.323.231 1.954.693.672.463 1.008 1.366 1.008 2.71 0 2.396-.903 3.593-2.71 3.593zm-3.53 31.703c-.042-.21-.105-.714-.189-1.512-.042-.84-.063-2.332-.063-4.475v-3.215c0-1.344.021-2.731.063-4.16.084-1.47.189-2.941.315-4.412.168-1.47.358-2.794.568-3.97.252-1.177.567-2.122.945-2.837.378-.756.84-1.134 1.387-1.134.672 0 1.071.294 1.197.882.168.588.252 1.282.252 2.08a218.78 218.78 0 01-.378 5.988 83.86 83.86 0 00-.252 6.429c0 1.554.126 3.277.378 5.168.252 1.849.378 3.508.378 4.98 0 1.008-.21 1.785-.63 2.331-.42.504-.861.757-1.323.757-.715 0-1.282-.21-1.702-.63-.42-.42-.736-1.177-.946-2.27zm14.284-4.033c0-2.143.021-4.265.063-6.366.084-2.143.147-4.391.189-6.744v-1.45l-2.017.126h-1.954c-.546 0-1.009-.294-1.387-.882a3.87 3.87 0 01-.504-1.954c0-.673.189-1.303.567-1.891.421-.63.883-.945 1.387-.945l4.097.126h.252a62.454 62.454 0 011.071-6.24c.463-2.06 1.093-3.887 1.891-5.484.799-1.638 1.765-2.962 2.899-3.97C252.726 7.504 254.071 7 255.625 7c.378 0 .904.105 1.576.315a7.34 7.34 0 012.017.946 6.53 6.53 0 011.765 1.45c.504.545.756 1.155.756 1.827 0 .21-.021.483-.063.82a3.2 3.2 0 01-.126.882c-.084.294-.21.546-.378.756a.62.62 0 01-.568.315c-.462 0-.882-.084-1.26-.252l-1.135-.63c-.378-.21-.777-.4-1.197-.567a3.058 3.058 0 00-1.387-.316c-1.134 0-2.08.379-2.836 1.135-.714.756-1.303 1.702-1.765 2.836a22.482 22.482 0 00-1.008 3.782 32.306 32.306 0 00-.378 3.908h6.87a4.99 4.99 0 01.819-.063c.294-.042.567-.063.819-.063.421 0 .82.168 1.198.504.378.336.567 1.05.567 2.143 0 .756-.105 1.344-.315 1.764a2.103 2.103 0 01-.693.883 2.02 2.02 0 01-.883.315 5.452 5.452 0 01-.756.063 154.68 154.68 0 01-2.584-.126c-.714-.042-1.345-.084-1.891-.126a16.756 16.756 0 00-1.387-.063h-1.827c-.042 1.975-.105 3.95-.19 5.925a254.191 254.191 0 00-.189 6.302c0 .463.105 1.324.316 2.584.21 1.261.315 2.627.315 4.097 0 .883-.147 1.513-.442 1.891-.294.378-.672.567-1.134.567-.672 0-1.219-.084-1.639-.252-.42-.126-.756-.42-1.008-.882-.21-.504-.357-1.177-.441-2.017-.084-.882-.126-2.038-.126-3.466zm25.624 2.773c-.504-1.093-1.113-2.5-1.827-4.223a1993.63 1993.63 0 00-2.206-5.294 452.145 452.145 0 00-2.08-5.169 143.695 143.695 0 01-1.576-3.97 8.447 8.447 0 01-.504-1.45 7.72 7.72 0 01-.126-1.198c.042-.966.273-1.743.693-2.332.462-.588.987-.882 1.576-.882.462 0 .819.252 1.071.756s.483 1.05.693 1.639c.421 1.26.946 2.731 1.576 4.412l1.891 4.916a574.513 574.513 0 011.891 4.664 74.63 74.63 0 001.449 3.34l8.635-16.828c.462-.924 1.03-1.639 1.702-2.143.714-.504 1.429-.756 2.143-.756.42 0 .735.273.945.82.21.503.316.987.316 1.449 0 .504-.148 1.008-.442 1.513-.252.504-.819 1.45-1.701 2.836a88.028 88.028 0 01-2.206 3.34c-.883 1.345-1.87 3.152-2.963 5.42a408.676 408.676 0 01-2.836 5.547 247.544 247.544 0 00-3.34 6.681 111.286 111.286 0 00-2.774 6.492c-.756 2.059-1.134 3.74-1.134 5.042 0 .757-.189 1.513-.567 2.27-.337.756-.82 1.134-1.45 1.134-.252 0-.546-.105-.882-.316a7.61 7.61 0 01-.946-.819 4.525 4.525 0 01-.756-1.008c-.21-.336-.315-.673-.315-1.009 0-.504.126-1.197.378-2.08.252-.84.546-1.764.882-2.773.378-.966.778-1.933 1.198-2.9.42-.966.84-1.806 1.26-2.52l2.332-4.601z" fill="#0D47A1"/>
  <path d="M329.968 51.84c-.305-.61-.553-1.696-.743-3.258-2.458 2.553-5.392 3.83-8.802 3.83-3.048 0-5.554-.858-7.516-2.573-1.943-1.733-2.915-3.924-2.915-6.572 0-3.22 1.219-5.716 3.658-7.488 2.458-1.79 5.906-2.686 10.345-2.686h5.144v-2.429c0-1.848-.553-3.315-1.658-4.4-1.105-1.106-2.734-1.658-4.886-1.658-1.886 0-3.468.476-4.744 1.429-1.277.952-1.915 2.105-1.915 3.457h-5.315c0-1.543.543-3.029 1.629-4.458 1.105-1.447 2.591-2.59 4.458-3.429 1.886-.838 3.953-1.257 6.201-1.257 3.563 0 6.354.895 8.373 2.686 2.02 1.772 3.067 4.22 3.144 7.344V44.61c0 2.838.362 5.096 1.086 6.773v.457h-5.544zm-8.774-4.03c1.658 0 3.23-.428 4.716-1.286 1.486-.857 2.562-1.971 3.229-3.343v-6.344h-4.144c-6.477 0-9.716 1.895-9.716 5.687 0 1.657.552 2.953 1.657 3.886 1.105.934 2.525 1.4 4.258 1.4zm27.263 4.03h-5.287V20.92h5.287v30.92zm-5.715-39.122c0-.858.257-1.582.771-2.172.534-.59 1.315-.886 2.343-.886 1.029 0 1.81.295 2.344.886.533.59.8 1.314.8 2.172 0 .857-.267 1.571-.8 2.143-.534.571-1.315.857-2.344.857-1.028 0-1.809-.286-2.343-.857-.514-.572-.771-1.286-.771-2.143z" fill="#1E88E5"/>
  <path d="M292.401 48.63c0-.985.287-1.806.862-2.463.595-.656 1.477-.984 2.646-.984 1.17 0 2.052.328 2.647.984.615.657.923 1.478.923 2.462 0 .944-.308 1.734-.923 2.37-.595.636-1.477.954-2.647.954-1.169 0-2.051-.318-2.646-.954-.575-.636-.862-1.426-.862-2.37z" fill="#FFAB00"/>
  <path d="M0 18.945C0 8.482 8.482 0 18.945 0h30.617c10.463 0 18.945 8.482 18.945 18.945v30.11C68.507 59.518 60.025 68 49.562 68H18.945C8.482 68 0 59.518 0 49.055v-30.11z" fill="#1976D2"/>
  <path d="M54.552 26.557a6.512 6.512 0 110-13.025 6.512 6.512 0 010 13.025zM44.403 39.582a3.975 3.975 0 110-7.95 3.975 3.975 0 010 7.95zm-19.622 0c-2.289 0-4.144-1.78-4.144-3.975 0-2.196 1.855-3.975 4.144-3.975s4.144 1.78 4.144 3.975c0 2.195-1.855 3.975-4.144 3.975zM14.8 26.557a6.512 6.512 0 110-13.025 6.512 6.512 0 010 13.025zm19.876 0c-3.55 0-6.427-2.916-6.427-6.512 0-3.597 2.878-6.513 6.427-6.513 3.55 0 6.428 2.916 6.428 6.513 0 3.596-2.877 6.512-6.428 6.512z" fill="#fff"/>
  <path fill-rule="evenodd" clip-rule="evenodd" d="M22.956 35.587L13.025 20.15l2.134-1.373 9.413 14.633 8.53-13.26.048.031-.02-.031 2.134-1.373 9.51 14.784 8.627-13.411 2.134 1.372-9.931 15.44-2.134-1.373.288-.449-.697.448-8.437-13.116-9.32 14.49-2.134-1.373.151-.235-.365.234z" fill="#fff"/>
  <path fill-rule="evenodd" clip-rule="evenodd" d="M38.736 39.751v-2.537h-8.12v2.537h8.12zm-9.81-4.229h11.502v5.92H28.925v-5.92z" fill="#fff"/>
  <path d="M43.962 48.078c0 5.272-4.212 9.546-9.407 9.546-5.196 0-9.407-4.274-9.407-9.547 0-5.272 4.211-9.545 9.407-9.545 5.195 0 9.407 4.273 9.407 9.546z" fill="#fff"/>
  <path d="M33.86 57.624l-8.928-8.712c.885 6.526-4.925 8.527-7.94 8.712H33.86z" fill="#fff"/>
</svg>
