<svg width="1372" height="305" viewBox="0 0 1372 305" fill="none" xmlns="http://www.w3.org/2000/svg">
<circle cx="273.5" cy="59.5" r="38.5" transform="rotate(90 273.5 59.5)" fill="white"/>
<ellipse cx="213.5" cy="151.5" rx="23.5" ry="23.5" transform="rotate(90 213.5 151.5)" fill="white"/>
<ellipse cx="97.5" cy="151.5" rx="23.5" ry="24.5" transform="rotate(90 97.5 151.5)" fill="white"/>
<circle cx="38.5" cy="59.5" r="38.5" transform="rotate(90 38.5 59.5)" fill="white"/>
<ellipse cx="156" cy="59.5" rx="38.5" ry="38" transform="rotate(90 156 59.5)" fill="white"/>
<line x1="278.491" y1="63.487" x2="219.779" y2="154.758" stroke="white" stroke-width="15"/>
<line x1="158.651" y1="55.3719" x2="217.363" y2="146.642" stroke="white" stroke-width="15"/>
<line x1="39.7942" y1="55.3719" x2="98.5063" y2="146.642" stroke="white" stroke-width="15"/>
<line x1="158.483" y1="63.487" x2="99.7705" y2="154.758" stroke="white" stroke-width="15"/>
<rect x="185" y="156" width="25" height="58" transform="rotate(90 185 156)" stroke="white" stroke-width="10"/>
<ellipse cx="155.281" cy="225.224" rx="55.6124" ry="56.4342" fill="white"/>
<path d="M151.171 281.658L98.3928 230.155C103.624 268.735 69.279 280.565 51.4526 281.658H151.171Z" fill="white"/>
<path d="M346 219.25C346 216.417 346.333 213.75 347 211.25C347.833 208.583 348.833 206.167 350 204C351.333 200.333 352.75 196.167 354.25 191.5C355.75 186.833 357.583 181.5 359.75 175.5C359.583 175 359.5 174.417 359.5 173.75C359.5 173.083 359.5 172.583 359.5 172.25C359.5 168.917 359.917 166.167 360.75 164C361.583 161.667 363.333 159.667 366 158L387.75 107C388.75 105 389.833 102.75 391 100.25C392.167 97.75 393.417 95.5 394.75 93.5C396.083 91.3333 397.5 89.5 399 88C400.5 86.5 402.083 85.75 403.75 85.75C408.417 85.75 412.667 88.4167 416.5 93.75C420.333 98.9167 423.833 105.5 427 113.5C430.333 121.5 433.333 130.333 436 140C438.667 149.667 441.083 158.917 443.25 167.75C445.583 176.417 447.667 184.083 449.5 190.75C451.5 197.417 453.417 201.833 455.25 204C456.417 205.5 457.417 206.75 458.25 207.75C459.083 208.583 459.75 209.5 460.25 210.5C460.75 211.333 461.083 212.417 461.25 213.75C461.583 214.917 461.75 216.5 461.75 218.5C461.75 221.167 461.333 223.25 460.5 224.75C459.667 226.083 458.667 227.083 457.5 227.75C456.5 228.583 455.333 229.083 454 229.25C452.833 229.417 451.833 229.5 451 229.5C449.333 229.5 447.75 228.583 446.25 226.75C444.75 224.75 443.333 222.417 442 219.75C440.833 217.083 439.75 214.25 438.75 211.25C437.917 208.25 437.25 205.667 436.75 203.5C435.417 198.833 434.25 195 433.25 192C432.417 189 431.5 186.667 430.5 185C429.667 183.333 428.583 182.167 427.25 181.5C426.083 180.833 424.417 180.5 422.25 180.5H380.25C379.083 180.5 378.083 180.583 377.25 180.75C376.583 180.917 375.917 181.417 375.25 182.25C374.75 182.917 374.25 183.917 373.75 185.25C373.25 186.583 372.583 188.417 371.75 190.75L364 213C363.667 216.333 363.083 219 362.25 221C361.417 223 360.417 224.583 359.25 225.75C358.25 226.75 357.25 227.417 356.25 227.75C355.25 228.25 354.583 228.5 354.25 228.5C351.583 228.5 349.5 227.917 348 226.75C346.667 225.417 346 222.917 346 219.25ZM383.75 157.25C388.583 157.417 392.917 157.583 396.75 157.75C400.583 157.75 404.667 157.75 409 157.75C411 157.75 413.083 157.75 415.25 157.75C417.417 157.75 419.75 157.667 422.25 157.5C421.083 154.167 419.583 150.333 417.75 146C416.083 141.5 414.167 137 412 132.5L402.75 112.75C401.917 113.25 400.667 115.25 399 118.75C397.333 122.25 395.5 126.333 393.5 131C391.667 135.667 389.833 140.417 388 145.25C386.167 150.083 384.75 154.083 383.75 157.25ZM486.975 213.5C486.975 209.667 486.975 206.583 486.975 204.25C487.141 201.75 487.225 199.667 487.225 198V191C487.225 188.833 487.225 186.75 487.225 184.75C487.225 182.583 487.308 179.5 487.475 175.5C487.808 171.5 488.141 166 488.475 159C488.975 152 489.725 142.333 490.725 130C491.058 126.333 491.891 123.417 493.225 121.25C494.558 118.917 496.641 117.75 499.475 117.75C500.808 117.75 502.225 118.667 503.725 120.5C505.225 122.167 505.975 125.5 505.975 130.5C505.975 131.333 505.975 132.25 505.975 133.25C505.975 134.083 505.891 135.083 505.725 136.25C506.891 132.417 508.725 129.167 511.225 126.5C513.891 123.833 516.808 121.667 519.975 120C523.141 118.333 526.391 117.167 529.725 116.5C533.058 115.667 536.141 115.25 538.975 115.25C541.141 115.25 543.641 115.5 546.475 116C549.475 116.333 552.225 117.167 554.725 118.5C557.391 119.667 559.558 121.5 561.225 124C563.058 126.333 563.975 129.5 563.975 133.5C563.975 137.167 563.308 140.167 561.975 142.5C560.641 144.833 558.725 146 556.225 146C554.225 146 552.891 145.583 552.225 144.75C551.725 143.75 551.058 142.667 550.225 141.5C549.558 140.333 548.475 139.333 546.975 138.5C545.475 137.5 542.808 137 538.975 137H536.475C524.475 137 516.058 140.333 511.225 147C506.391 153.5 503.975 163.25 503.975 176.25V180.5L505.225 215.75C505.225 216.583 505.058 217.667 504.725 219C504.391 220.167 503.891 221.417 503.225 222.75C502.558 224.083 501.641 225.25 500.475 226.25C499.475 227.083 498.141 227.5 496.475 227.5C492.641 227.5 490.058 226.417 488.725 224.25C487.558 221.917 486.975 218.333 486.975 213.5ZM622.248 228.25C616.248 228.25 611.415 226.833 607.748 224C604.081 221 601.248 217.083 599.248 212.25C597.248 207.417 595.831 201.917 594.998 195.75C594.331 189.583 593.915 183.25 593.748 176.75C593.581 170.083 593.415 163.583 593.248 157.25C593.248 150.917 592.998 145.167 592.498 140C590.665 140 588.748 140.083 586.748 140.25C584.748 140.417 582.581 140.5 580.248 140.5C579.581 140.5 578.665 140.25 577.498 139.75C576.498 139.25 575.415 138.583 574.248 137.75C573.248 136.75 572.331 135.583 571.498 134.25C570.831 132.917 570.498 131.333 570.498 129.5C570.498 126.167 571.498 123.333 573.498 121C575.498 118.667 577.748 117.5 580.248 117.5C582.415 117.5 584.581 117.583 586.748 117.75C588.915 117.75 591.248 117.833 593.748 118C593.748 115.833 593.831 112.5 593.998 108C594.331 103.5 594.831 99.0833 595.498 94.75C596.331 90.4167 597.498 86.5833 598.998 83.25C600.498 79.9167 602.498 78.25 604.998 78.25C606.331 78.25 607.748 79.25 609.248 81.25C610.915 83.0833 611.748 85.5833 611.748 88.75C611.748 96.25 611.498 101.833 610.998 105.5C610.665 109.167 610.331 111.917 609.998 113.75L609.248 118.25C615.248 118.25 621.248 118.167 627.248 118C633.415 117.833 639.581 117.75 645.748 117.75C646.915 117.75 647.915 118.167 648.748 119C649.581 119.833 650.248 120.917 650.748 122.25C651.248 123.417 651.581 124.75 651.748 126.25C652.081 127.583 652.248 128.833 652.248 130C652.248 133.5 651.331 136.167 649.498 138C647.831 139.667 646.165 140.5 644.498 140.5L608.998 140C608.998 141.5 608.915 143.5 608.748 146C608.748 148.333 608.748 150.917 608.748 153.75C608.748 156.583 608.665 159.583 608.498 162.75C608.498 165.75 608.498 168.667 608.498 171.5C608.498 176 608.665 180.333 608.998 184.5C609.331 188.5 609.915 192.083 610.748 195.25C611.748 198.417 613.081 201 614.748 203C616.415 204.833 618.665 205.75 621.498 205.75C623.498 205.75 625.498 205.333 627.498 204.5C629.665 203.667 631.581 202.75 633.248 201.75C635.081 200.583 636.581 199.583 637.748 198.75C638.915 197.917 639.665 197.5 639.998 197.5C641.998 197.5 643.331 198.167 643.998 199.5C644.665 200.667 644.998 202.417 644.998 204.75C644.998 207.25 644.165 209.917 642.498 212.75C640.998 215.417 639.081 217.917 636.748 220.25C634.415 222.583 631.915 224.5 629.248 226C626.581 227.5 624.248 228.25 622.248 228.25ZM687.033 92.25C685.867 92.25 684.533 92.0833 683.033 91.75C681.533 91.4167 680.117 90.8333 678.783 90C677.45 89 676.283 87.75 675.283 86.25C674.45 84.5833 674.033 82.4167 674.033 79.75C674.033 77.9167 674.367 76.0833 675.033 74.25C675.867 72.4167 676.867 70.8333 678.033 69.5C679.2 68 680.45 66.8333 681.783 66C683.283 65 684.7 64.5 686.033 64.5C688.7 64.5 691.283 65.4167 693.783 67.25C696.45 69.0833 697.783 72.6667 697.783 78C697.783 87.5 694.2 92.25 687.033 92.25ZM673.033 218C672.867 217.167 672.617 215.167 672.283 212C672.117 208.667 672.033 202.75 672.033 194.25C672.033 190.917 672.033 186.667 672.033 181.5C672.033 176.167 672.117 170.667 672.283 165C672.617 159.167 673.033 153.333 673.533 147.5C674.2 141.667 674.95 136.417 675.783 131.75C676.783 127.083 678.033 123.333 679.533 120.5C681.033 117.5 682.867 116 685.033 116C687.7 116 689.283 117.167 689.783 119.5C690.45 121.833 690.783 124.583 690.783 127.75C690.45 134.75 689.95 142.667 689.283 151.5C688.617 160.167 688.283 168.667 688.283 177C688.283 183.167 688.783 190 689.783 197.5C690.783 204.833 691.283 211.417 691.283 217.25C691.283 221.25 690.45 224.333 688.783 226.5C687.117 228.5 685.367 229.5 683.533 229.5C680.7 229.5 678.45 228.667 676.783 227C675.117 225.333 673.867 222.333 673.033 218ZM720.438 209.5C720.438 208.5 720.604 207.333 720.938 206C721.438 204.5 722.021 203.167 722.688 202C723.521 200.667 724.354 199.583 725.188 198.75C726.021 197.75 726.938 197.25 727.938 197.25C728.604 197.25 729.521 198 730.688 199.5C732.188 201.5 733.604 203.083 734.938 204.25C736.438 205.25 737.938 206.083 739.438 206.75C741.104 207.417 742.938 207.833 744.938 208C747.104 208.167 749.604 208.25 752.438 208.25C755.604 208.25 758.938 207.917 762.438 207.25C765.938 206.583 769.104 205.833 771.938 205C774.771 204.167 777.104 203.25 778.938 202.25C780.938 201.25 781.938 200.5 781.938 200C781.938 198.333 780.271 197 776.938 196C773.771 194.833 769.688 193.75 764.688 192.75C759.688 191.75 754.354 190.5 748.688 189C743.021 187.5 737.688 185.5 732.688 183C727.688 180.333 723.521 177 720.188 173C717.021 168.833 715.438 163.583 715.438 157.25C715.438 150.25 716.854 144.083 719.687 138.75C722.688 133.25 726.521 128.667 731.188 125C735.854 121.167 741.021 118.333 746.688 116.5C752.354 114.5 757.938 113.5 763.438 113.5C771.271 113.5 777.521 115.667 782.188 120C786.854 124.333 789.188 129.333 789.188 135C789.188 137 789.104 139.167 788.938 141.5C788.938 143.833 788.688 146.083 788.188 148.25C787.688 150.25 786.938 152 785.938 153.5C784.938 154.833 783.438 155.5 781.438 155.5C779.604 155.5 778.438 154.583 777.938 152.75C777.438 150.917 777.188 148.583 777.188 145.75C777.188 141.917 775.688 139.333 772.688 138C769.854 136.667 765.854 136 760.688 136C757.854 136 754.688 136.583 751.188 137.75C747.854 138.75 744.688 140.25 741.688 142.25C738.688 144.083 736.104 146.25 733.938 148.75C731.938 151.083 730.938 153.5 730.938 156C730.938 159 732.521 161.25 735.688 162.75C739.021 164.083 743.188 165.25 748.188 166.25C753.188 167.25 758.521 168.333 764.188 169.5C769.854 170.5 775.188 172.083 780.188 174.25C785.188 176.417 789.271 179.417 792.438 183.25C795.771 187.083 797.438 192.25 797.438 198.75C797.438 204.583 795.604 209.583 791.938 213.75C788.271 217.75 783.854 221 778.688 223.5C773.688 226 768.438 227.75 762.938 228.75C757.604 229.917 753.271 230.5 749.938 230.5C747.438 230.5 744.521 230.25 741.188 229.75C737.854 229.417 734.604 228.5 731.438 227C728.438 225.5 725.854 223.417 723.688 220.75C721.521 217.917 720.438 214.167 720.438 209.5ZM865.412 228.25C859.412 228.25 854.579 226.833 850.912 224C847.245 221 844.412 217.083 842.412 212.25C840.412 207.417 838.995 201.917 838.162 195.75C837.495 189.583 837.079 183.25 836.912 176.75C836.745 170.083 836.579 163.583 836.412 157.25C836.412 150.917 836.162 145.167 835.662 140C833.829 140 831.912 140.083 829.912 140.25C827.912 140.417 825.745 140.5 823.412 140.5C822.745 140.5 821.829 140.25 820.662 139.75C819.662 139.25 818.579 138.583 817.412 137.75C816.412 136.75 815.495 135.583 814.662 134.25C813.995 132.917 813.662 131.333 813.662 129.5C813.662 126.167 814.662 123.333 816.662 121C818.662 118.667 820.912 117.5 823.412 117.5C825.579 117.5 827.745 117.583 829.912 117.75C832.079 117.75 834.412 117.833 836.912 118C836.912 115.833 836.995 112.5 837.162 108C837.495 103.5 837.995 99.0833 838.662 94.75C839.495 90.4167 840.662 86.5833 842.162 83.25C843.662 79.9167 845.662 78.25 848.162 78.25C849.495 78.25 850.912 79.25 852.412 81.25C854.079 83.0833 854.912 85.5833 854.912 88.75C854.912 96.25 854.662 101.833 854.162 105.5C853.829 109.167 853.495 111.917 853.162 113.75L852.412 118.25C858.412 118.25 864.412 118.167 870.412 118C876.579 117.833 882.745 117.75 888.912 117.75C890.079 117.75 891.079 118.167 891.912 119C892.745 119.833 893.412 120.917 893.912 122.25C894.412 123.417 894.745 124.75 894.912 126.25C895.245 127.583 895.412 128.833 895.412 130C895.412 133.5 894.495 136.167 892.662 138C890.995 139.667 889.329 140.5 887.662 140.5L852.162 140C852.162 141.5 852.079 143.5 851.912 146C851.912 148.333 851.912 150.917 851.912 153.75C851.912 156.583 851.829 159.583 851.662 162.75C851.662 165.75 851.662 168.667 851.662 171.5C851.662 176 851.829 180.333 852.162 184.5C852.495 188.5 853.079 192.083 853.912 195.25C854.912 198.417 856.245 201 857.912 203C859.579 204.833 861.829 205.75 864.662 205.75C866.662 205.75 868.662 205.333 870.662 204.5C872.829 203.667 874.745 202.75 876.412 201.75C878.245 200.583 879.745 199.583 880.912 198.75C882.079 197.917 882.829 197.5 883.162 197.5C885.162 197.5 886.495 198.167 887.162 199.5C887.829 200.667 888.162 202.417 888.162 204.75C888.162 207.25 887.329 209.917 885.662 212.75C884.162 215.417 882.245 217.917 879.912 220.25C877.579 222.583 875.079 224.5 872.412 226C869.745 227.5 867.412 228.25 865.412 228.25ZM930.197 92.25C929.031 92.25 927.697 92.0833 926.197 91.75C924.697 91.4167 923.281 90.8333 921.947 90C920.614 89 919.447 87.75 918.447 86.25C917.614 84.5833 917.197 82.4167 917.197 79.75C917.197 77.9167 917.531 76.0833 918.197 74.25C919.031 72.4167 920.031 70.8333 921.197 69.5C922.364 68 923.614 66.8333 924.947 66C926.447 65 927.864 64.5 929.197 64.5C931.864 64.5 934.447 65.4167 936.947 67.25C939.614 69.0833 940.947 72.6667 940.947 78C940.947 87.5 937.364 92.25 930.197 92.25ZM916.197 218C916.031 217.167 915.781 215.167 915.447 212C915.281 208.667 915.197 202.75 915.197 194.25C915.197 190.917 915.197 186.667 915.197 181.5C915.197 176.167 915.281 170.667 915.447 165C915.781 159.167 916.197 153.333 916.697 147.5C917.364 141.667 918.114 136.417 918.947 131.75C919.947 127.083 921.197 123.333 922.697 120.5C924.197 117.5 926.031 116 928.197 116C930.864 116 932.447 117.167 932.947 119.5C933.614 121.833 933.947 124.583 933.947 127.75C933.614 134.75 933.114 142.667 932.447 151.5C931.781 160.167 931.447 168.667 931.447 177C931.447 183.167 931.947 190 932.947 197.5C933.947 204.833 934.447 211.417 934.447 217.25C934.447 221.25 933.614 224.333 931.947 226.5C930.281 228.5 928.531 229.5 926.697 229.5C923.864 229.5 921.614 228.667 919.947 227C918.281 225.333 917.031 222.333 916.197 218ZM972.852 202C972.852 193.5 972.935 185.083 973.102 176.75C973.435 168.25 973.685 159.333 973.852 150V144.25C971.185 144.417 968.518 144.583 965.852 144.75C963.352 144.75 960.768 144.75 958.102 144.75C955.935 144.75 954.102 143.583 952.602 141.25C951.268 138.917 950.602 136.333 950.602 133.5C950.602 130.833 951.352 128.333 952.852 126C954.518 123.5 956.352 122.25 958.352 122.25L974.602 122.75H975.602C976.602 114.417 978.018 106.167 979.852 98C981.685 89.8333 984.185 82.5833 987.352 76.25C990.518 69.75 994.352 64.5 998.852 60.5C1003.35 56.5 1008.68 54.5 1014.85 54.5C1016.35 54.5 1018.43 54.9167 1021.1 55.75C1023.93 56.5833 1026.6 57.8333 1029.1 59.5C1031.77 61 1034.1 62.9167 1036.1 65.25C1038.1 67.4167 1039.1 69.8333 1039.1 72.5C1039.1 73.3333 1039.02 74.4167 1038.85 75.75C1038.85 76.9167 1038.68 78.0833 1038.35 79.25C1038.02 80.4167 1037.52 81.4167 1036.85 82.25C1036.35 83.0833 1035.6 83.5 1034.6 83.5C1032.77 83.5 1031.1 83.1667 1029.6 82.5C1028.1 81.6667 1026.6 80.8333 1025.1 80C1023.6 79.1667 1022.02 78.4167 1020.35 77.75C1018.68 76.9167 1016.85 76.5 1014.85 76.5C1010.35 76.5 1006.6 78 1003.6 81C1000.77 84 998.435 87.75 996.602 92.25C994.935 96.75 993.602 101.75 992.602 107.25C991.768 112.583 991.268 117.75 991.102 122.75H1018.35C1019.35 122.583 1020.43 122.5 1021.6 122.5C1022.77 122.333 1023.85 122.25 1024.85 122.25C1026.52 122.25 1028.1 122.917 1029.6 124.25C1031.1 125.583 1031.85 128.417 1031.85 132.75C1031.85 135.75 1031.43 138.083 1030.6 139.75C1029.93 141.25 1029.02 142.417 1027.85 143.25C1026.85 143.917 1025.68 144.333 1024.35 144.5C1023.18 144.667 1022.18 144.75 1021.35 144.75C1017.35 144.583 1013.93 144.417 1011.1 144.25C1008.27 144.083 1005.77 143.917 1003.6 143.75C1001.6 143.583 999.768 143.5 998.102 143.5C996.602 143.5 995.018 143.5 993.352 143.5H990.852C990.685 151.333 990.435 159.167 990.102 167C989.768 174.667 989.518 183 989.352 192C989.352 193.833 989.768 197.25 990.602 202.25C991.435 207.25 991.852 212.667 991.852 218.5C991.852 222 991.268 224.5 990.102 226C988.935 227.5 987.435 228.25 985.602 228.25C982.935 228.25 980.768 227.917 979.102 227.25C977.435 226.75 976.102 225.583 975.102 223.75C974.268 221.75 973.685 219.083 973.352 215.75C973.018 212.25 972.852 207.667 972.852 202ZM1074.49 213C1072.49 208.667 1070.08 203.083 1067.24 196.25C1064.41 189.417 1061.49 182.417 1058.49 175.25C1055.66 168.083 1052.91 161.25 1050.24 154.75C1047.58 148.25 1045.49 143 1043.99 139C1043.16 137.167 1042.49 135.25 1041.99 133.25C1041.66 131.25 1041.49 129.667 1041.49 128.5C1041.66 124.667 1042.58 121.583 1044.24 119.25C1046.08 116.917 1048.16 115.75 1050.49 115.75C1052.33 115.75 1053.74 116.75 1054.74 118.75C1055.74 120.75 1056.66 122.917 1057.49 125.25C1059.16 130.25 1061.24 136.083 1063.74 142.75C1066.24 149.25 1068.74 155.75 1071.24 162.25C1073.91 168.75 1076.41 174.917 1078.74 180.75C1081.08 186.417 1082.99 190.833 1084.49 194L1118.74 127.25C1120.58 123.583 1122.83 120.75 1125.49 118.75C1128.33 116.75 1131.16 115.75 1133.99 115.75C1135.66 115.75 1136.91 116.833 1137.74 119C1138.58 121 1138.99 122.917 1138.99 124.75C1138.99 126.75 1138.41 128.75 1137.24 130.75C1136.24 132.75 1133.99 136.5 1130.49 142C1128.33 145.5 1125.41 149.917 1121.74 155.25C1118.24 160.583 1114.33 167.75 1109.99 176.75C1106.99 182.75 1103.24 190.083 1098.74 198.75C1094.24 207.417 1089.83 216.25 1085.49 225.25C1081.33 234.25 1077.66 242.833 1074.49 251C1071.49 259.167 1069.99 265.833 1069.99 271C1069.99 274 1069.24 277 1067.74 280C1066.41 283 1064.49 284.5 1061.99 284.5C1060.99 284.5 1059.83 284.083 1058.49 283.25C1057.33 282.417 1056.08 281.333 1054.74 280C1053.58 278.833 1052.58 277.5 1051.74 276C1050.91 274.667 1050.49 273.333 1050.49 272C1050.49 270 1050.99 267.25 1051.99 263.75C1052.99 260.417 1054.16 256.75 1055.49 252.75C1056.99 248.917 1058.58 245.083 1060.24 241.25C1061.91 237.417 1063.58 234.083 1065.24 231.25L1074.49 213ZM1150.33 217.054C1150.33 213.772 1151.28 211.038 1153.2 208.851C1155.18 206.663 1158.12 205.569 1162.02 205.569C1165.91 205.569 1168.85 206.663 1170.83 208.851C1172.88 211.038 1173.91 213.772 1173.91 217.054C1173.91 220.198 1172.88 222.83 1170.83 224.949C1168.85 227.068 1165.91 228.128 1162.02 228.128C1158.12 228.128 1155.18 227.068 1153.2 224.949C1151.28 222.83 1150.33 220.198 1150.33 217.054ZM1273.78 227C1272.69 224.812 1271.8 220.916 1271.12 215.311C1262.3 224.471 1251.77 229.051 1239.54 229.051C1228.6 229.051 1219.61 225.975 1212.57 219.822C1205.59 213.602 1202.11 205.74 1202.11 196.238C1202.11 184.686 1206.48 175.73 1215.23 169.373C1224.05 162.947 1236.42 159.734 1252.35 159.734H1270.81V151.019C1270.81 144.388 1268.83 139.124 1264.86 135.228C1260.9 131.263 1255.05 129.28 1247.33 129.28C1240.56 129.28 1234.89 130.989 1230.31 134.407C1225.73 137.825 1223.44 141.961 1223.44 146.814H1204.36C1204.36 141.277 1206.31 135.945 1210.21 130.818C1214.17 125.623 1219.51 121.521 1226.21 118.514C1232.97 115.506 1240.39 114.002 1248.46 114.002C1261.24 114.002 1271.25 117.215 1278.5 123.641C1285.75 129.998 1289.51 138.782 1289.78 149.993V201.058C1289.78 211.243 1291.08 219.344 1293.68 225.359V227H1273.78ZM1242.3 212.542C1248.25 212.542 1253.89 211.004 1259.22 207.928C1264.55 204.852 1268.42 200.853 1270.81 195.931V173.167H1255.94C1232.7 173.167 1221.08 179.969 1221.08 193.572C1221.08 199.52 1223.06 204.168 1227.03 207.518C1230.99 210.867 1236.08 212.542 1242.3 212.542ZM1340.13 227H1321.16V116.053H1340.13V227ZM1319.62 86.624C1319.62 83.5479 1320.54 80.9502 1322.39 78.8311C1324.3 76.7119 1327.1 75.6523 1330.79 75.6523C1334.49 75.6523 1337.29 76.7119 1339.2 78.8311C1341.12 80.9502 1342.07 83.5479 1342.07 86.624C1342.07 89.7002 1341.12 92.2637 1339.2 94.3145C1337.29 96.3652 1334.49 97.3906 1330.79 97.3906C1327.1 97.3906 1324.3 96.3652 1322.39 94.3145C1320.54 92.2637 1319.62 89.7002 1319.62 86.624Z" fill="white"/>
</svg>
