<svg width="1591" height="305" viewBox="0 0 1591 305" fill="none" xmlns="http://www.w3.org/2000/svg">
<circle cx="273.5" cy="42.5" r="38.5" transform="rotate(90 273.5 42.5)" fill="white"/>
<ellipse cx="213.5" cy="134.5" rx="23.5" ry="23.5" transform="rotate(90 213.5 134.5)" fill="white"/>
<ellipse cx="97.5" cy="134.5" rx="23.5" ry="24.5" transform="rotate(90 97.5 134.5)" fill="white"/>
<circle cx="38.5" cy="42.5" r="38.5" transform="rotate(90 38.5 42.5)" fill="white"/>
<ellipse cx="156" cy="42.5" rx="38.5" ry="38" transform="rotate(90 156 42.5)" fill="white"/>
<line x1="278.491" y1="46.487" x2="219.779" y2="137.758" stroke="white" stroke-width="15"/>
<line x1="158.651" y1="38.3719" x2="217.363" y2="129.642" stroke="white" stroke-width="15"/>
<line x1="39.7942" y1="38.3719" x2="98.5063" y2="129.642" stroke="white" stroke-width="15"/>
<line x1="158.483" y1="46.487" x2="99.7705" y2="137.758" stroke="white" stroke-width="15"/>
<rect x="185" y="139" width="25" height="58" transform="rotate(90 185 139)" stroke="white" stroke-width="10"/>
<ellipse cx="155.281" cy="208.224" rx="55.6124" ry="56.4342" fill="white"/>
<path d="M151.171 264.658L98.3928 213.155C103.624 251.735 69.279 263.565 51.4526 264.658H151.171Z" fill="white"/>
<path d="M441.713 53.2705L478.456 200.731L507.509 205.004L438.783 234.301L462.221 204.516L448.549 170.458L385.561 172.533L372.743 208.788L396.303 239.794L323.305 210.985L359.193 207.445L369.447 173.021H363.466L353.212 159.96L373.964 157.763L396.059 84.0322L371.034 70.9707L441.713 53.2705ZM391.298 155.81L440.004 150.194L414.979 88.3047L391.298 155.81ZM587.709 142.748C586.977 139.737 585.919 137.174 584.535 135.058C583.233 132.942 581.728 131.192 580.019 129.809C578.391 128.344 576.641 127.245 574.77 126.513C572.898 125.699 571.026 125.089 569.154 124.682C564.76 123.786 560.08 123.827 555.116 124.804C553.407 125.373 551.576 126.269 549.623 127.489C547.914 128.629 545.961 130.175 543.764 132.128C541.566 134 539.206 136.522 536.684 139.696L538.881 210.497L560.854 221.483L496.156 227.221L512.88 210.253L519.716 125.292L493.715 113.451L535.707 105.517L536.195 120.775C539.044 117.357 541.973 114.55 544.984 112.353C547.995 110.155 550.722 108.365 553.163 106.981C556.011 105.435 558.778 104.255 561.464 103.441C566.347 102.302 571.311 101.854 576.356 102.099C578.472 102.18 580.67 102.424 582.948 102.831C585.308 103.238 587.668 103.889 590.028 104.784C592.47 105.598 594.83 106.737 597.108 108.202C599.387 109.586 601.584 111.335 603.7 113.451L587.709 142.748ZM615.907 172.533C615.907 164.883 616.68 157.274 618.227 149.706C619.854 142.056 621.604 135.058 623.476 128.71L602.357 130.053L661.928 64.9893C657.208 79.8818 653.383 93.3096 650.453 105.272L697.938 109.301L691.713 123.949L645.692 127.245C644.553 133.186 643.658 138.476 643.007 143.114C642.437 147.672 641.949 151.537 641.542 154.711C641.135 158.454 640.85 161.71 640.688 164.477C640.688 172.615 641.176 179.939 642.152 186.449C643.129 192.96 644.634 198.534 646.669 203.173C648.785 207.73 651.43 211.27 654.604 213.793C657.859 216.234 661.724 217.455 666.2 217.455C670.351 217.455 673.809 216.641 676.576 215.014C679.424 213.305 681.703 211.148 683.412 208.544C685.121 205.858 686.342 202.888 687.074 199.633C687.807 196.296 688.173 193 688.173 189.745C688.173 186.734 687.929 183.804 687.44 180.956C690.94 182.746 693.585 185.635 695.375 189.623C697.247 193.529 698.183 197.802 698.183 202.44C698.183 207.242 697.369 211.474 695.741 215.136C694.195 218.798 692.038 221.89 689.271 224.413C686.505 226.854 683.249 228.726 679.506 230.028C675.762 231.33 671.734 231.981 667.421 231.981C664.817 231.981 661.724 231.697 658.144 231.127C654.644 230.557 650.982 229.499 647.157 227.953C643.332 226.488 639.548 224.372 635.805 221.605C632.061 218.839 628.725 215.258 625.795 210.863C622.865 206.469 620.465 201.138 618.593 194.872C616.802 188.524 615.907 181.078 615.907 172.533ZM703.31 227.221L722.475 212.206L718.324 127.978L695.741 113.207L748.231 104.296L738.832 202.196L765.077 218.554L703.31 227.221ZM749.574 74.7549C749.574 77.1963 749.086 79.5156 748.109 81.7129C747.133 83.8288 745.79 85.7412 744.081 87.4502C742.372 89.0778 740.419 90.3799 738.222 91.3564C736.024 92.2516 733.705 92.6992 731.264 92.6992C728.66 92.6992 726.218 92.2516 723.939 91.3564C721.742 90.3799 719.83 89.0778 718.202 87.4502C716.575 85.7412 715.272 83.8288 714.296 81.7129C713.319 79.5156 712.831 77.1963 712.831 74.7549C712.831 72.2321 713.319 69.9128 714.296 67.7969C715.272 65.5996 716.575 63.6872 718.202 62.0596C719.83 60.432 721.742 59.1706 723.939 58.2754C726.218 57.2988 728.66 56.8105 731.264 56.8105C733.705 56.8105 736.024 57.2988 738.222 58.2754C740.419 59.1706 742.372 60.432 744.081 62.0596C745.79 63.6872 747.133 65.5996 748.109 67.7969C749.086 69.9128 749.574 72.2321 749.574 74.7549ZM816.225 101.732C819.317 101.732 822.45 102.017 825.624 102.587C828.798 103.075 831.89 103.848 834.901 104.906C837.994 105.883 840.883 107.104 843.568 108.568C846.335 109.952 848.817 111.498 851.015 113.207L871.034 88.5488L862.001 149.462C861.024 145.23 859.315 141.08 856.874 137.011C854.433 132.86 851.381 129.158 847.719 125.902C844.138 122.647 839.988 120.043 835.268 118.09C830.548 116.055 825.38 115.038 819.765 115.038C816.672 115.038 813.702 115.404 810.854 116.137C808.005 116.788 805.482 117.886 803.285 119.433C801.169 120.979 799.46 122.932 798.158 125.292C796.938 127.652 796.327 130.46 796.327 133.715C796.327 137.621 797.385 140.795 799.501 143.236C801.698 145.678 804.547 147.753 808.046 149.462C811.545 151.09 815.533 152.514 820.009 153.734C824.485 154.874 829.083 156.094 833.803 157.396C838.523 158.699 843.121 160.245 847.597 162.035C852.073 163.744 856.06 165.982 859.56 168.749C863.059 171.516 865.867 174.975 867.982 179.125C870.18 183.194 871.278 188.24 871.278 194.262C871.278 201.016 869.936 206.794 867.25 211.596C864.646 216.316 861.269 220.222 857.118 223.314C852.968 226.326 848.37 228.523 843.324 229.906C838.279 231.29 833.355 231.981 828.554 231.981C824.647 231.981 820.741 231.575 816.835 230.761C812.929 229.947 809.145 228.808 805.482 227.343C801.82 225.878 798.321 224.128 794.984 222.094C791.729 220.059 788.759 217.862 786.073 215.502L767.519 240.282L773.256 179.735C775.86 185.269 778.993 190.437 782.655 195.238C786.317 200.04 790.386 204.231 794.862 207.812C799.338 211.311 804.14 214.078 809.267 216.112C814.394 218.065 819.724 219.042 825.258 219.042C831.687 219.042 836.814 217.699 840.639 215.014C844.545 212.247 846.498 208.34 846.498 203.295C846.498 200.04 845.399 197.354 843.202 195.238C841.086 193.041 838.238 191.129 834.657 189.501C831.158 187.873 827.17 186.409 822.694 185.106C818.218 183.804 813.62 182.38 808.9 180.834C804.18 179.288 799.582 177.497 795.106 175.463C790.631 173.347 786.602 170.743 783.021 167.65C779.522 164.477 776.674 160.652 774.477 156.176C772.361 151.618 771.303 146.125 771.303 139.696C771.303 134.162 772.117 129.361 773.744 125.292C775.372 121.223 777.488 117.805 780.092 115.038C782.777 112.19 785.748 109.911 789.003 108.202C792.34 106.412 795.676 105.069 799.013 104.174C802.349 103.197 805.523 102.546 808.534 102.221C811.545 101.895 814.109 101.732 816.225 101.732ZM893.495 172.533C893.495 164.883 894.268 157.274 895.814 149.706C897.442 142.056 899.192 135.058 901.063 128.71L879.945 130.053L939.516 64.9893C934.796 79.8818 930.971 93.3096 928.041 105.272L975.526 109.301L969.301 123.949L923.28 127.245C922.141 133.186 921.246 138.476 920.595 143.114C920.025 147.672 919.537 151.537 919.13 154.711C918.723 158.454 918.438 161.71 918.275 164.477C918.275 172.615 918.764 179.939 919.74 186.449C920.717 192.96 922.222 198.534 924.257 203.173C926.373 207.73 929.018 211.27 932.191 213.793C935.447 216.234 939.312 217.455 943.788 217.455C947.938 217.455 951.397 216.641 954.164 215.014C957.012 213.305 959.291 211.148 961 208.544C962.709 205.858 963.93 202.888 964.662 199.633C965.395 196.296 965.761 193 965.761 189.745C965.761 186.734 965.517 183.804 965.028 180.956C968.528 182.746 971.173 185.635 972.963 189.623C974.835 193.529 975.771 197.802 975.771 202.44C975.771 207.242 974.957 211.474 973.329 215.136C971.783 218.798 969.626 221.89 966.859 224.413C964.092 226.854 960.837 228.726 957.094 230.028C953.35 231.33 949.322 231.981 945.009 231.981C942.405 231.981 939.312 231.697 935.731 231.127C932.232 230.557 928.57 229.499 924.745 227.953C920.92 226.488 917.136 224.372 913.393 221.605C909.649 218.839 906.312 215.258 903.383 210.863C900.453 206.469 898.052 201.138 896.181 194.872C894.39 188.524 893.495 181.078 893.495 172.533ZM980.897 227.221L1000.06 212.206L995.912 127.978L973.329 113.207L1025.82 104.296L1016.42 202.196L1042.67 218.554L980.897 227.221ZM1027.16 74.7549C1027.16 77.1963 1026.67 79.5156 1025.7 81.7129C1024.72 83.8288 1023.38 85.7412 1021.67 87.4502C1019.96 89.0778 1018.01 90.3799 1015.81 91.3564C1013.61 92.2516 1011.29 92.6992 1008.85 92.6992C1006.25 92.6992 1003.81 92.2516 1001.53 91.3564C999.33 90.3799 997.418 89.0778 995.79 87.4502C994.162 85.7412 992.86 83.8288 991.884 81.7129C990.907 79.5156 990.419 77.1963 990.419 74.7549C990.419 72.2321 990.907 69.9128 991.884 67.7969C992.86 65.5996 994.162 63.6872 995.79 62.0596C997.418 60.432 999.33 59.1706 1001.53 58.2754C1003.81 57.2988 1006.25 56.8105 1008.85 56.8105C1011.29 56.8105 1013.61 57.2988 1015.81 58.2754C1018.01 59.1706 1019.96 60.432 1021.67 62.0596C1023.38 63.6872 1024.72 65.5996 1025.7 67.7969C1026.67 69.9128 1027.16 72.2321 1027.16 74.7549ZM1082.58 127.978V131.518C1082.58 138.598 1082.5 145.434 1082.34 152.025C1082.18 158.536 1081.97 164.965 1081.73 171.312C1081.56 177.66 1081.4 183.926 1081.24 190.111C1081.08 196.296 1080.95 202.522 1080.87 208.788L1109.07 224.535H1043.4L1065.37 209.521C1063.58 193.082 1062.16 178.189 1061.1 164.843C1060.12 151.415 1059.39 140.144 1058.9 131.029L1041.08 132.982L1057.92 106.249C1058.49 98.5993 1059.67 91.5599 1061.46 85.1309C1063.25 78.6204 1065.78 73.0052 1069.03 68.2852C1072.37 63.5651 1076.52 59.903 1081.48 57.2988C1086.45 54.6133 1092.43 53.2705 1099.43 53.2705C1101.87 53.2705 1104.39 53.5146 1107 54.0029C1109.6 54.4098 1112.12 55.0609 1114.56 55.9561C1117.09 56.8512 1119.45 57.9906 1121.64 59.374C1123.84 60.7575 1125.67 62.3851 1127.14 64.2568L1146.91 49.7305L1127.63 98.5586C1127.46 93.5944 1126.81 89.3626 1125.67 85.8633C1124.61 82.2826 1123.27 79.3122 1121.64 76.9521C1120.1 74.5921 1118.39 72.7611 1116.52 71.459C1114.65 70.0755 1112.9 69.0583 1111.27 68.4072C1109.64 67.6748 1108.26 67.2272 1107.12 67.0645C1105.98 66.8203 1105.33 66.6982 1105.17 66.6982C1101.26 66.9424 1098 68.2038 1095.4 70.4824C1092.8 72.7611 1090.64 75.8942 1088.93 79.8818C1087.3 83.8695 1086.04 88.6302 1085.15 94.1641C1084.25 99.6165 1083.56 105.639 1083.07 112.23H1127.63L1118.59 123.461L1082.58 127.978ZM1232.12 119.311C1232.93 125.984 1233.54 133.227 1233.95 141.039C1234.44 148.852 1234.6 156.868 1234.44 165.087C1234.27 173.306 1233.75 181.566 1232.85 189.867C1231.96 198.087 1230.53 206.021 1228.58 213.671C1226.62 221.239 1224.1 228.319 1221.01 234.911C1217.92 241.503 1214.09 247.2 1209.54 252.001C1205.06 256.884 1199.77 260.709 1193.67 263.476C1187.64 266.324 1180.69 267.748 1172.79 267.748C1163.84 267.748 1154.28 265.51 1144.11 261.034L1135.07 278.979L1122.62 231.005C1126.28 235.806 1130.03 239.672 1133.85 242.602C1137.76 245.531 1141.46 247.769 1144.96 249.315C1148.54 250.943 1151.8 252.001 1154.73 252.489C1157.74 252.978 1160.18 253.222 1162.05 253.222C1168.72 253.222 1174.66 251.106 1179.87 246.874C1185.16 242.724 1189.8 236.946 1193.79 229.54C1187.28 222.704 1180.93 215.299 1174.75 207.323C1168.64 199.267 1163.11 190.722 1158.14 181.688C1153.18 172.574 1148.99 163.012 1145.57 153.002C1142.23 142.992 1140.08 132.576 1139.1 121.752L1119.08 111.01L1175.6 102.953L1165.1 117.235C1167.22 133.593 1171.29 149.665 1177.31 165.453C1183.33 181.241 1191.18 197.273 1200.87 213.549C1202.98 207.445 1204.82 200.854 1206.36 193.773C1207.99 186.693 1209.33 179.206 1210.39 171.312C1211.53 163.419 1212.38 155.24 1212.95 146.776C1213.52 138.231 1213.89 129.564 1214.05 120.775L1195.86 102.953C1202.62 103.441 1208.56 103.889 1213.69 104.296C1218.89 104.703 1223.41 105.069 1227.24 105.395C1231.06 105.639 1234.27 105.883 1236.88 106.127C1239.56 106.29 1241.76 106.412 1243.47 106.493C1247.46 106.819 1249.82 106.981 1250.55 106.981L1232.12 119.311ZM1296.82 219.042C1296.82 221.646 1296.12 223.884 1294.74 225.756C1293.44 227.628 1291.81 229.133 1289.86 230.272C1287.9 231.493 1285.87 232.348 1283.75 232.836C1281.64 233.406 1279.81 233.69 1278.26 233.69C1276.55 233.69 1274.64 233.406 1272.52 232.836C1270.41 232.348 1268.41 231.493 1266.54 230.272C1264.67 229.133 1263.08 227.628 1261.78 225.756C1260.48 223.884 1259.83 221.646 1259.83 219.042C1259.83 216.275 1260.48 213.915 1261.78 211.962C1263.08 210.009 1264.67 208.422 1266.54 207.201C1268.41 205.899 1270.41 204.963 1272.52 204.394C1274.64 203.824 1276.55 203.539 1278.26 203.539C1279.81 203.539 1281.64 203.824 1283.75 204.394C1285.87 204.963 1287.9 205.899 1289.86 207.201C1291.81 208.422 1293.44 210.009 1294.74 211.962C1296.12 213.915 1296.82 216.275 1296.82 219.042ZM1420.72 149.95C1420.72 154.263 1420.47 158.902 1419.98 163.866C1419.5 168.83 1418.76 173.876 1417.79 179.003C1416.89 184.13 1415.79 189.175 1414.49 194.14C1413.27 199.022 1411.93 203.539 1410.46 207.689L1436.46 226L1390.44 224.047L1393.25 209.032C1388.37 215.136 1382.71 219.815 1376.28 223.07C1369.94 226.244 1362.57 228.157 1354.19 228.808C1347.35 229.296 1341.37 228.808 1336.24 227.343C1331.2 225.959 1326.97 223.803 1323.55 220.873C1320.21 217.862 1317.73 214.2 1316.1 209.887C1314.47 205.492 1313.66 200.609 1313.66 195.238C1313.66 190.274 1314.88 185.473 1317.32 180.834C1319.76 176.114 1323.26 171.964 1327.82 168.383C1332.46 164.802 1338.12 161.954 1344.79 159.838C1351.46 157.641 1359.03 156.542 1367.49 156.542C1371.4 156.542 1375.88 156.908 1380.92 157.641C1386.05 158.373 1390.89 159.919 1395.45 162.279C1395.04 157.315 1394.27 152.27 1393.13 147.143C1392.07 141.934 1390.48 137.214 1388.37 132.982C1386.25 128.751 1383.49 125.333 1380.07 122.729C1376.73 120.043 1372.54 118.7 1367.49 118.7C1363.18 118.7 1358.99 119.595 1354.92 121.386C1350.85 123.176 1347.03 125.74 1343.45 129.076C1339.95 132.413 1336.77 136.482 1333.92 141.283C1331.08 146.085 1328.68 151.496 1326.72 157.519L1316.47 97.7041L1331.97 121.508C1335.8 116.788 1339.66 113.044 1343.57 110.277C1347.47 107.429 1351.34 105.272 1355.17 103.808C1359.07 102.261 1362.81 101.244 1366.4 100.756C1370.06 100.268 1373.56 100.023 1376.89 100.023C1383.16 100.349 1388.94 101.651 1394.23 103.93C1399.6 106.127 1404.24 109.341 1408.14 113.573C1412.05 117.724 1415.1 122.851 1417.3 128.954C1419.58 135.058 1420.72 142.056 1420.72 149.95ZM1395.45 189.013C1395.61 186.734 1395.73 184.537 1395.81 182.421C1395.9 180.305 1395.94 178.23 1395.94 176.195V174.73C1393.01 173.591 1390.04 172.737 1387.03 172.167C1384.1 171.516 1381.37 171.068 1378.85 170.824C1376.32 170.499 1374.17 170.336 1372.38 170.336C1370.67 170.255 1369.53 170.214 1368.96 170.214C1364.32 170.377 1360.29 171.231 1356.87 172.777C1353.46 174.324 1350.61 176.277 1348.33 178.637C1346.13 180.915 1344.46 183.479 1343.32 186.327C1342.27 189.175 1341.74 191.983 1341.74 194.75C1341.74 201.016 1343.24 205.777 1346.25 209.032C1349.35 212.206 1353.82 213.793 1359.68 213.793C1363.59 213.793 1367.29 213.101 1370.79 211.718C1374.29 210.334 1377.54 208.503 1380.56 206.225C1383.65 203.865 1386.42 201.22 1388.86 198.29C1391.38 195.279 1393.58 192.187 1395.45 189.013ZM1439.15 227.221L1458.31 212.206L1454.16 127.978L1431.58 113.207L1484.07 104.296L1474.67 202.196L1500.92 218.554L1439.15 227.221ZM1485.41 74.7549C1485.41 77.1963 1484.93 79.5156 1483.95 81.7129C1482.97 83.8288 1481.63 85.7412 1479.92 87.4502C1478.21 89.0778 1476.26 90.3799 1474.06 91.3564C1471.86 92.2516 1469.54 92.6992 1467.1 92.6992C1464.5 92.6992 1462.06 92.2516 1459.78 91.3564C1457.58 90.3799 1455.67 89.0778 1454.04 87.4502C1452.41 85.7412 1451.11 83.8288 1450.14 81.7129C1449.16 79.5156 1448.67 77.1963 1448.67 74.7549C1448.67 72.2321 1449.16 69.9128 1450.14 67.7969C1451.11 65.5996 1452.41 63.6872 1454.04 62.0596C1455.67 60.432 1457.58 59.1706 1459.78 58.2754C1462.06 57.2988 1464.5 56.8105 1467.1 56.8105C1469.54 56.8105 1471.86 57.2988 1474.06 58.2754C1476.26 59.1706 1478.21 60.432 1479.92 62.0596C1481.63 63.6872 1482.97 65.5996 1483.95 67.7969C1484.93 69.9128 1485.41 72.2321 1485.41 74.7549Z" fill="white"/>
</svg>
